# xmcd
#
# Track frame offsets:
#	150
#	10941
#	22671
#	36165
#	48933
#	62672
#	73785
#	83596
#	95088
#	105301
#	116856
#	126755
#	138582
#	151788
#	160594
#	174055
#	183578
#	195488
#	206195
#	217626
#	227248
#	237178
#	247629
#	258557
#	266892
#	277804
#	287605
#	300596
#	308901
#	321862
#	333017
#	345097
#
# Disc length: 4722 seconds
# Revision: 0
# Processed by: cddbd v1.5.2PL0 Copyright (c) Steve Scherf et al.
# Submitted via: dBpowerAMP V12.0
#
DISCID=a7127020
DTITLE=Champ Butler - Down Yonder With Champ Butler
DYEAR=2012
DGENRE=Nostalgia
TTITLE0=Dear, Dear, Dear
TTITLE1=Dry Land
TTITLE2=Be My Love (w. Les Brown)
TTITLE3=In The Land Of Make Believe
TTITLE4=I Apologise
TTITLE5=Let Me In
TTITLE6=Them There Eyes
TTITLE7=At Your Beck And Call
TTITLE8=Down Yonder (w. The Lee Brothers)
TTITLE9=Way Up In North Carolina
TTITLE10=Reaching For The Moon (w. The Lee Brothers)
TTITLE11=When
TTITLE12=These Precious Things Are Mine
TTITLE13=Ooh Look-A There Ain't She Pretty (1951 Version)
TTITLE14=Be Anything
TTITLE15=When I Look Into Your Eyes
TTITLE16=Two (who love as one)
TTITLE17=Meet Me On The Corner
TTITLE18=Auf Wiederseh'n Sweetheart
TTITLE19=Padam Padam
TTITLE20=Henrietta's Wedding
TTITLE21=You Intrigue Me
TTITLE22=You Win Again
TTITLE23=Cross My Heart Madame
TTITLE24=I'm Not Afraid
TTITLE25=Cakewalk Rag
TTITLE26=Kaw-Liga
TTITLE27=Fit As A Fiddle
TTITLE28=I'm Walking Behind You
TTITLE29=Take These Chains From My Heart
TTITLE30=Till Now
TTITLE31=Gypsy Lou
EXTD=
EXTT0=
EXTT1=
EXTT2=
EXTT3=
EXTT4=
EXTT5=
EXTT6=
EXTT7=
EXTT8=
EXTT9=
EXTT10=
EXTT11=
EXTT12=
EXTT13=
EXTT14=
EXTT15=
EXTT16=
EXTT17=
EXTT18=
EXTT19=
EXTT20=
EXTT21=
EXTT22=
EXTT23=
EXTT24=
EXTT25=
EXTT26=
EXTT27=
EXTT28=
EXTT29=
EXTT30=
EXTT31=
PLAYORDER=
